<svg width="16" height="16" viewBox="0 0 16 16" fill="none" xmlns="http://www.w3.org/2000/svg">
<path fill-rule="evenodd" clip-rule="evenodd" d="M13.6368 7.60785L12.9243 7.45099L11.816 3.13726C11.7368 2.7451 11.2618 2.35295 10.866 2.35295H9.36183L9.04517 1.88236C8.88683 1.7255 8.64933 1.56863 8.33267 1.56863C8.016 1.56863 7.7785 1.7255 7.62017 1.88236L7.3035 2.35295H5.79933C5.32433 2.35295 4.9285 2.66667 4.84933 3.13726L3.741 7.45099L3.0285 7.60785C2.63267 7.68628 2.39517 8.15687 2.5535 8.54903L4.05767 12.3922C4.691 12.3137 5.24517 12 5.641 11.5294L5.95767 11.2157L6.27433 11.5294C6.8285 12.0784 7.541 12.4706 8.33267 12.4706C9.12433 12.4706 9.916 12.1569 10.391 11.5294L10.7077 11.2157L11.0243 11.5294C11.4202 12 12.0535 12.3137 12.6077 12.3922L14.1118 8.54903C14.2702 8.15687 14.0327 7.76471 13.6368 7.60785ZM11.4202 7.11765L11.4993 7.13726H11.4202V7.11765ZM11.4202 5.4902V7.11765L8.33267 6.35295L5.166 7.13726V5.4902C5.166 5.09805 5.48267 4.78432 5.8785 4.78432H10.7077C11.1035 4.78432 11.4202 5.09805 11.4202 5.4902ZM6.74933 9.33334C7.14284 9.33334 7.46183 9.01731 7.46183 8.62746C7.46183 8.23761 7.14284 7.92158 6.74933 7.92158C6.35583 7.92158 6.03683 8.23761 6.03683 8.62746C6.03683 9.01731 6.35583 9.33334 6.74933 9.33334ZM10.6285 8.62746C10.6285 9.01731 10.3095 9.33334 9.916 9.33334C9.5225 9.33334 9.2035 9.01731 9.2035 8.62746C9.2035 8.23761 9.5225 7.92158 9.916 7.92158C10.3095 7.92158 10.6285 8.23761 10.6285 8.62746Z" fill="#132968"/>
<path d="M10.7077 12.1569L10.391 12.4706C9.83683 13.0196 9.12433 13.4118 8.33267 13.4118C7.541 13.4118 6.74933 13.098 6.27433 12.4706L5.95767 12.1569L5.641 12.4706C5.08683 13.0196 4.37433 13.4118 3.58267 13.4118V14.1961C4.4535 14.1961 5.32433 13.8824 5.95767 13.3333C6.591 13.8824 7.46183 14.1961 8.33267 14.1961C9.2035 14.1961 10.0743 13.8824 10.7077 13.3333C11.341 13.8824 12.2118 14.1961 13.0827 14.1961V13.4118C12.291 13.3333 11.5785 13.0196 11.0243 12.4706L10.7077 12.1569Z" fill="#132968"/>
</svg>
