<svg width="31" height="22" viewBox="0 0 31 22" fill="none" xmlns="http://www.w3.org/2000/svg">
<path fill-rule="evenodd" clip-rule="evenodd" d="M30.2901 9.18721C30.2901 4.15554 26.4564 0.503159 21.1725 0.503159C18.7308 0.503159 16.6468 1.62551 15.5686 2.77939C15.4892 2.86543 15.3775 2.91436 15.2605 2.91436C15.1434 2.91436 15.0317 2.86543 14.9523 2.77939C13.9009 1.62866 11.8154 0.507888 9.32002 0.507888C4.05505 0.507888 0.232422 4.16026 0.232422 9.19194V20.7969C0.232422 20.9711 0.373572 21.1122 0.54769 21.1122H6.29502C6.46914 21.1122 6.61029 20.9711 6.61029 20.7969V9.44731C6.61029 7.96397 7.53876 6.4633 9.31529 6.4633C11.1312 6.4633 12.0818 7.96397 12.0818 9.44731V20.7969C12.0818 20.9711 12.2229 21.1122 12.397 21.1122H18.1507C18.3248 21.1122 18.4659 20.9711 18.4659 20.7969V9.44731C18.4659 7.96397 19.3928 6.4633 21.1694 6.4633C22.9869 6.4633 23.9358 7.96397 23.9358 9.44731V20.7969C23.9358 20.9711 24.077 21.1122 24.2511 21.1122H29.9732C30.1473 21.1122 30.2885 20.9711 30.2885 20.7969L30.2901 9.18721Z" fill="#132968"/>
</svg>
