<svg width="105" height="104" viewBox="0 0 105 104" fill="none" xmlns="http://www.w3.org/2000/svg">
<rect x="0.564453" y="97.7093" width="104.182" height="5.98634" fill="url(#paint0_linear_3429_101883)"/>
<path fill-rule="evenodd" clip-rule="evenodd" d="M27.9917 37.3893C28.1438 38.1502 33.6191 51.0868 33.6191 51.0868L32.0475 90.2517C32.0475 91.3678 32.4023 92.4332 33.1121 93.2449L33.6698 93.9044V100.956L20.6914 99.5863V42.7161L27.9917 37.3893Z" fill="url(#paint1_linear_3429_101883)"/>
<path fill-rule="evenodd" clip-rule="evenodd" d="M33.6699 100.956L55.5202 97.7093V92.839L33.6699 93.4478V100.956Z" fill="url(#paint2_linear_3429_101883)"/>
<path fill-rule="evenodd" clip-rule="evenodd" d="M48.9298 17.8576L59.0184 49.3112C59.0184 49.3112 59.3733 87.4107 59.0184 89.8966C58.6636 92.3317 56.2301 93.3463 56.2301 93.3463C56.2301 93.3463 53.7967 93.6507 44.215 94.7668C34.6333 95.8829 35.3431 94.7668 35.3431 94.7668C32.0985 94.0566 32.0478 90.3024 32.0478 90.3024L32.2506 51.4419C32.2506 51.4419 24.0377 24.7571 23.0238 21.9161C22.0099 19.0751 23.0745 16.8429 23.0745 16.8429L25.0517 15.4224C25.8628 14.8137 26.826 14.4585 27.84 14.4585C31.4901 14.4078 40.6662 14.3571 44.0122 14.4585C48.5749 14.4078 48.9298 17.8576 48.9298 17.8576ZM27.1809 17.0966C27.1809 17.0966 27.2823 17.6039 28.2963 20.3941L46.4457 20.4449C46.4457 20.4449 46.1922 17.7561 44.215 17.2995C41.1225 17.0459 27.1809 17.0966 27.1809 17.0966Z" fill="url(#paint3_linear_3429_101883)"/>
<path fill-rule="evenodd" clip-rule="evenodd" d="M49.4861 19.7346L27.1289 19.7854L36.1529 50.3258L36.305 91.1141C36.305 92.7883 37.6738 94.0566 39.1947 93.8536L56.5837 92.281C57.8511 92.1795 59.2199 90.3532 59.1185 87.918L58.9664 49.2605L49.4861 19.7346Z" fill="url(#paint4_linear_3429_101883)"/>
<path fill-rule="evenodd" clip-rule="evenodd" d="M48.8787 17.8576C48.8787 17.8576 48.5238 14.4078 43.9611 14.4585C40.6151 14.3571 31.439 14.4078 27.7889 14.4585C27.5861 14.4585 27.3833 14.5093 27.1805 14.5093C25.7103 15.1688 26.2173 17.1473 26.2173 17.1473L27.1298 19.7854H28.0424C27.2312 17.5024 27.1298 17.0966 27.1298 17.0966C27.1298 17.0966 41.0714 17.0458 44.1639 17.2995C45.482 17.6039 46.0397 18.9229 46.2425 19.7854H49.487L48.8787 17.8576Z" fill="url(#paint5_linear_3429_101883)"/>
<path fill-rule="evenodd" clip-rule="evenodd" d="M31.6406 22.6771H48.2691L53.9979 41.7015L37.6228 42.0566L31.6406 22.6771Z" fill="url(#paint6_linear_3429_101883)"/>
<path fill-rule="evenodd" clip-rule="evenodd" d="M45.3784 15.4224C45.3784 15.4224 30.0173 15.321 28.4457 15.4224C27.1783 15.5239 27.1276 16.6907 27.1783 17.0966C27.3811 17.0966 41.1199 17.0458 44.2124 17.2995C45.3784 17.6039 46.2909 19.7854 46.2909 19.7854V19.7854L48.8258 19.7346C48.8258 19.7346 48.5723 18.8215 47.9639 17.2995C47.1528 15.5746 45.3784 15.4224 45.3784 15.4224Z" fill="url(#paint7_linear_3429_101883)"/>
<path fill-rule="evenodd" clip-rule="evenodd" d="M35.5449 48.2458L53.1874 47.7385L57.8008 50.3766L36.204 51.3912L35.5449 48.2458Z" fill="url(#paint8_linear_3429_101883)"/>
<path fill-rule="evenodd" clip-rule="evenodd" d="M55.519 53.6741C55.5697 54.4859 54.9614 55.1961 54.2009 55.2468L50.2466 55.4498C49.4861 55.5005 48.8271 54.841 48.7764 54.0293V54.0293C48.7257 53.2176 49.3341 52.5073 50.0945 52.4566L54.0488 52.2537C54.86 52.2029 55.519 52.8117 55.519 53.6741V53.6741Z" fill="url(#paint9_linear_3429_101883)"/>
<path fill-rule="evenodd" clip-rule="evenodd" d="M36.2051 59.1024L59.0693 58.3922V59.1024L36.2051 60.0663V59.1024Z" fill="url(#paint10_linear_3429_101883)"/>
<path fill-rule="evenodd" clip-rule="evenodd" d="M37.8262 63.2117V64.6829L43.3521 64.4293V63.6176L47.4585 63.4146V64.1756L52.2747 63.922V63.1102L59.0681 62.8059V62.1463L37.8262 63.2117Z" fill="url(#paint11_linear_3429_101883)"/>
<path fill-rule="evenodd" clip-rule="evenodd" d="M66.5711 16.5385C65.253 16.7922 63.9856 17.5024 63.4786 19.1259C62.9717 20.7493 60.5889 32.3161 60.234 32.8234C59.8285 33.3307 51.6663 30.2868 51.6663 30.2868V30.2868V30.2361C51.5649 29.8302 51.2607 29.4244 51.1593 28.9678C51.0579 28.4605 51.1086 27.9532 50.8552 27.4966C50.6524 27.0907 50.3482 26.7356 50.1961 26.3298C50.044 25.9746 49.9426 25.5688 49.7398 25.2137C49.2329 25.3151 49.4357 26.0761 49.537 26.3805C49.2329 26.0761 48.2696 25.4673 47.8134 25.1629C47.6106 25.0615 46.7994 24.96 46.1911 24.7063C46.0897 24.6556 45.9883 24.7571 45.9883 24.8585C46.1911 25.721 47.5599 25.518 48.1175 26.4312C48.1175 26.4312 47.8641 26.4312 47.6613 26.6341C47.5599 26.7356 47.5599 26.9893 47.4585 27.0907C47.3571 27.1922 47.205 27.1415 47.1036 27.2429C47.0022 27.3444 47.0529 27.4966 47.0022 27.598C46.9515 27.6995 46.7994 27.6995 46.7487 27.801C46.5459 28.0039 46.4952 28.1054 46.5966 28.4098C46.6473 28.562 46.7994 28.7649 46.9008 28.9171C47.1543 29.2722 47.8134 30.7941 49.537 32.1132C51.0073 33.2293 62.3633 39.7229 63.58 35.4615L67.2809 24.4527L70.3227 15.0166C70.1199 15.0673 67.8892 16.2849 66.5711 16.5385Z" fill="url(#paint12_linear_3429_101883)"/>
<path fill-rule="evenodd" clip-rule="evenodd" d="M79.1943 53.3697C81.0701 48.4995 78.3325 42.3102 78.3325 42.3102C78.3325 42.3102 64.036 46.6224 63.4783 46.6224C62.9207 46.6224 71.1335 69.8068 71.387 70.4663C71.6405 71.1258 72.2489 74.4234 72.7558 75.8946C72.9586 76.5034 73.2121 79.8517 73.4656 83.5551C73.4656 84.5697 73.4656 85.7366 73.567 86.1932C73.6684 86.9034 73.567 86.9034 73.567 87.6137C73.567 88.121 73.4149 88.9327 73.8711 89.1863C74.0232 92.078 74.0739 94.6146 74.0739 94.8683C74.0739 95.4263 70.1703 97.8107 68.041 98.1658C65.9118 98.521 66.4187 99.5356 66.4187 99.5356C69.9168 100.449 73.4656 99.2819 74.6823 99.3834C75.899 99.4849 78.8901 99.84 79.1436 98.8254C79.3971 97.8107 78.1297 94.7668 77.8762 94.6654C77.7748 94.6146 78.0283 92.1795 78.4338 89.3385L78.5352 89.1863C78.738 88.9327 78.6873 88.5268 78.7887 88.2224C78.8901 87.8673 78.9408 87.6136 78.8901 87.2585C78.8394 86.7005 79.0929 85.9902 79.1436 85.3307C79.2957 84.4176 79.4478 83.5551 79.5999 82.7941C80.3096 79.04 77.9269 73.0029 77.7748 70.6185C77.6734 68.8936 77.3185 58.24 79.1943 53.3697Z" fill="url(#paint13_linear_3429_101883)"/>
<path fill-rule="evenodd" clip-rule="evenodd" d="M77.4212 42.3102C76.2045 36.9327 65.5075 44.6946 63.7331 45.9629L63.2768 45.7093C63.4289 45.8615 63.4796 46.0137 63.4796 46.2166C63.4796 46.2673 63.4796 46.3688 63.4289 46.521C63.2768 47.1805 62.8206 47.9922 62.7699 48.4488C62.7192 48.9561 62.9726 49.3619 62.8712 49.8693C62.7699 50.3766 62.6685 50.1737 62.6178 50.681C62.5164 51.6956 63.2261 52.0507 62.8206 53.9785C62.0601 61.4361 61.2997 72.5463 61.6038 73.8146C61.7559 74.3727 61.3503 75.3366 62.7192 76.5541C63.2768 78.1268 65.5075 85.3815 65.6089 85.9902C65.7103 86.4976 65.761 86.9034 65.9637 87.36C66.1665 87.7658 66.5721 88.2224 66.7242 88.6283C67.3833 90.3024 67.0284 91.3171 67.9409 90.9619C68.093 91.0127 67.7381 90.9619 67.9409 90.9619C68.9042 93.3463 69.5125 95.0205 69.3604 95.3249C68.8028 96.2888 64.7977 98.1151 63.7838 98.2673C63.1754 98.318 62.415 98.9268 61.9587 99.4341C61.7559 99.6371 61.908 99.9922 62.1615 99.9922C63.1754 99.9922 65.3047 100.043 68.3972 99.9922C72.9599 99.8907 72.9599 99.8907 72.9599 99.8907L73.6189 99.9415C74.3794 99.9922 74.9878 99.2819 74.8864 98.521L74.6836 97.0497C74.6329 96.6946 74.4808 96.3395 74.3287 96.0351C74.0752 95.6293 73.112 92.3317 72.4529 89.8458C72.5036 89.7444 72.5543 89.6429 72.5036 89.4907C72.4529 89.0341 72.1994 88.7297 72.1994 88.1717C72.1994 87.6644 72.098 87.36 71.946 86.9541C71.3883 78.9893 69.0562 77.1122 67.9916 74.3219C67.6874 73.9668 73.9738 56.8195 74.0245 56.4644C75.2412 54.2829 79.8039 52.8117 77.4212 42.3102Z" fill="url(#paint14_linear_3429_101883)"/>
<path fill-rule="evenodd" clip-rule="evenodd" d="M66.1154 3.60194C66.1661 3.75414 66.4703 3.70341 66.5717 3.80487C66.7745 3.95707 66.9266 4.21072 66.9773 4.41365C67.0786 4.61658 66.9773 4.8195 67.0786 5.02243C67.18 5.17463 67.2814 5.27609 67.3321 5.47902C67.4335 5.68194 67.4335 5.9356 67.4335 6.13853C67.5349 6.74731 67.6363 7.35609 67.8391 7.96487C68.0419 8.62438 68.2954 9.2839 68.2954 9.94341C68.2954 10.8566 69.1572 14.9658 68.5488 15.7268C68.2447 16.1327 68.7516 12.8858 65.0508 14.0527C64.341 14.0527 64.2396 13.4946 64.2396 13.241C64.2396 12.7337 64.1889 12.7844 64.0875 12.5815C64.0368 12.48 63.8848 12.48 63.8341 12.4293C63.7834 12.3278 63.7834 12.2263 63.8341 12.1249C63.8341 12.0234 63.9355 11.9219 63.9355 11.8205C63.9355 11.719 63.8341 11.6683 63.7327 11.5668C63.5299 11.3639 63.682 11.2117 63.7834 11.0088C63.8848 10.8058 63.9862 10.6029 63.8341 10.4C63.6313 10.0956 62.9722 10.0449 63.175 9.58829C63.3271 9.23316 63.8341 8.87804 63.7327 8.42146C63.6313 8.37072 63.4285 8.31999 63.3778 8.21853C63.682 8.06633 63.8848 7.71121 63.8341 7.35609C63.7834 7.10243 63.682 6.84877 63.6313 6.59511C63.5806 6.29072 63.5299 5.9356 63.5299 5.63121C63.5299 5.22536 63.6313 4.8195 63.7834 4.46438C63.9355 4.10926 64.0875 3.60194 64.3917 3.39902C64.4931 3.39902 65.6591 2.63804 66.1154 3.60194Z" fill="url(#paint15_linear_3429_101883)"/>
<path fill-rule="evenodd" clip-rule="evenodd" d="M76.1523 16.5893C76.355 16.6907 78.7378 18.5678 79.4475 20.0898C80.1573 21.6117 79.9038 23.3873 80.2587 24.8078C80.6136 26.279 82.1852 31.7073 82.2359 32.722C82.2866 33.7366 82.7935 38.4546 82.4387 38.8098C82.0838 39.1649 77.4197 39.9766 77.4197 39.9766L76.1016 35.7659C76.1016 35.7659 78.2308 35.1571 78.0787 34.6498C77.8759 34.0917 76.9127 31.3522 76.9634 31.1493C77.0141 30.9463 80.3094 25.2137 79.3968 22.3727C78.4336 19.5317 78.4336 19.5317 78.4336 19.5317L76.1523 16.5893Z" fill="url(#paint16_linear_3429_101883)"/>
<path fill-rule="evenodd" clip-rule="evenodd" d="M69.005 15.7776L72.2496 14.6615L77.6741 17.5024C77.6741 17.5024 79.9554 19.8361 79.9047 21.2566C79.8541 22.6771 80.5131 25.2137 79.0936 27.5473C77.7248 29.881 75.9504 35.0556 76.2039 35.8166C76.4574 36.6283 76.356 36.2224 76.5081 36.8312C76.7109 37.44 77.8262 41.1434 78.1304 41.4985C78.4345 41.8537 78.4852 42.2595 78.3332 42.3102C78.029 42.4117 70.3231 47.8907 63.479 46.1659C63.479 46.1659 62.5158 43.6293 62.8707 43.0712C63.2256 42.5132 63.2256 41.9551 63.2256 41.9551C62.82 41.2449 62.6172 38.201 62.9721 37.2878C63.3269 36.3746 67.332 23.8439 67.332 23.8439C67.332 23.8439 69.8668 18.2634 66.4194 16.5385L69.005 15.7776Z" fill="url(#paint17_linear_3429_101883)"/>
<path fill-rule="evenodd" clip-rule="evenodd" d="M64.1378 3.60195C64.1378 3.60195 64.0364 2.68877 66.5713 1.57268C69.1061 0.45658 72.5535 -0.507323 74.4799 2.18146C76.4064 4.87024 75.798 10.2478 76.305 12.8351C76.8627 15.4224 76.7106 16.2849 78.5864 18.6185C80.2594 20.6985 77.7245 22.0683 76.4571 22.5756C76.1022 22.7278 75.798 22.4741 75.5953 22.1697C73.3139 19.1258 73.3139 19.1258 72.1479 14.9658C72.1479 14.9658 67.9908 16.1327 66.7233 16.4878C65.4559 16.7922 68.0922 13.9512 67.5852 13.038C66.8754 11.8205 66.3685 9.74048 66.4192 9.03024C66.4699 8.31999 66.8247 15.6254 65.8615 16.0819C65.8615 16.0819 66.2164 14.8137 65.7601 13.038C65.3545 11.3132 63.0732 7.15316 64.1378 3.60195" fill="url(#paint18_linear_3429_101883)"/>
<path fill-rule="evenodd" clip-rule="evenodd" d="M66.8757 16.4371C66.7743 16.4878 66.6729 16.4878 66.5715 16.4878C65.2534 16.7415 63.986 17.4517 63.479 19.0751C62.9721 20.6985 60.4372 31.8088 60.0316 32.3161C59.7782 32.6205 56.6857 32.0117 54.2522 31.1493C53.7453 31.8595 53.1876 33.0771 53.3904 34.5483C56.9391 36.882 62.8707 38.6576 63.7832 36.2732C63.7832 36.2732 65.6083 30.0839 66.318 27.7502C68.4473 30.0332 72.6551 17.959 66.8757 16.4371Z" fill="url(#paint19_linear_3429_101883)"/>
<path fill-rule="evenodd" clip-rule="evenodd" d="M73.9724 95.122C73.5668 93.9044 72.857 91.6215 72.4008 89.7951C71.2347 90.201 69.2576 90.5561 67.9395 90.962C68.8013 93.4478 69.511 95.0712 69.359 95.3249C71.5389 96.7961 71.5389 96.7961 71.9952 96.1366C72.4515 95.4771 73.9724 95.122 73.9724 95.122V95.122Z" fill="url(#paint20_linear_3429_101883)"/>
<path fill-rule="evenodd" clip-rule="evenodd" d="M73.8711 89.2371C73.9725 91.9766 74.0739 94.7161 74.0739 94.919C75.2906 95.3756 76.0004 96.238 76.5073 95.68C77.0143 95.1219 77.9268 94.7668 77.9268 94.7668C77.8254 94.7161 78.1803 91.9258 78.5859 89.2878V89.2878H73.8711V89.2371Z" fill="url(#paint21_linear_3429_101883)"/>
<path fill-rule="evenodd" clip-rule="evenodd" d="M17.4961 88.0195C17.4961 88.0195 18.2565 86.4976 19.5747 84.0624C20.8928 81.6273 24.0867 76.199 27.2806 77.5688C30.4744 78.9385 29.3591 81.7795 28.7508 84.1132C28.1424 86.4976 27.6861 88.3746 27.6861 88.3746H25.7597C25.7597 88.3746 27.9903 83.7581 28.1931 82.2868C28.4466 80.8156 28.3959 77.9746 25.6583 78.5327C22.9713 79.0907 20.0816 85.2293 19.5747 88.0702" fill="#EF4849"/>
<path fill-rule="evenodd" clip-rule="evenodd" d="M20.5383 87.4615C21.0453 87.6137 34.9362 87.4615 34.8855 87.4615C34.8855 87.4615 39.0426 93.1941 40.0565 94.5639C41.0198 95.9337 41.4253 101.768 37.471 103.696L20.082 103.645L20.5383 87.4615Z" fill="url(#paint22_linear_3429_101883)"/>
<path fill-rule="evenodd" clip-rule="evenodd" d="M20.5388 87.4615C20.5388 87.4615 26.5717 103.29 20.0318 103.594H11.312C11.312 103.594 3.60609 98.6224 16.331 87.4615H20.5388Z" fill="url(#paint23_linear_3429_101883)"/>
<path fill-rule="evenodd" clip-rule="evenodd" d="M22.1095 87.4615H16.3808C16.3808 87.4615 14.4036 88.4254 14.6064 90.201C14.8092 91.9766 15.4175 95.7307 15.4175 95.7307L17.2426 95.8322C17.2426 95.8322 19.9802 85.1278 24.4416 90.7083C24.4416 90.6576 23.3769 87.4615 22.1095 87.4615Z" fill="url(#paint24_linear_3429_101883)"/>
<path fill-rule="evenodd" clip-rule="evenodd" d="M25.4054 76.96C25.4054 76.96 23.1748 76.8585 23.4283 79.5981C23.6311 82.3376 24.1887 88.3239 24.1887 88.3239C24.1887 88.3239 22.8199 88.8312 24.4422 91.2156C25.6082 92.8898 26.0645 93.6 26.0645 93.6C26.0645 93.6 26.5715 90.962 26.7236 90.3024C27.0277 88.9327 25.6589 88.3239 25.6589 88.3239C25.6589 88.3239 24.7971 84.1639 24.5436 81.12C24.3408 78.9385 24.4422 77.5181 25.6082 77.4673C27.5854 77.0615 29.664 79.9024 30.8807 82.7941C32.0974 85.6351 32.4523 88.3239 32.4523 88.3239C32.4523 88.3239 31.337 88.6283 31.996 89.8459C32.7058 91.1142 34.6322 93.6 34.6322 93.6C34.6322 93.6 35.0378 90.9112 35.0885 90.1502C35.2406 88.7298 33.6183 88.0702 33.6183 88.0702C33.6183 88.0702 30.83 76.1483 25.4054 76.96Z" fill="#F06B6C"/>
<defs>
<linearGradient id="paint0_linear_3429_101883" x1="0.566582" y1="103.68" x2="104.747" y2="103.68" gradientUnits="userSpaceOnUse">
<stop stop-color="#435683" stop-opacity="0.01"/>
<stop offset="0.0203226" stop-color="#435683" stop-opacity="0.0652627"/>
<stop offset="0.3114" stop-color="#435683"/>
<stop offset="1" stop-color="#435683" stop-opacity="0.01"/>
</linearGradient>
<linearGradient id="paint1_linear_3429_101883" x1="20.6639" y1="37.4133" x2="20.6639" y2="100.959" gradientUnits="userSpaceOnUse">
<stop offset="0.2447" stop-color="#5E8CC6"/>
<stop offset="0.4845" stop-color="#547BB2"/>
<stop offset="0.9714" stop-color="#3A4E80"/>
<stop offset="1" stop-color="#384B7D"/>
</linearGradient>
<linearGradient id="paint2_linear_3429_101883" x1="33.6478" y1="100.97" x2="55.5217" y2="100.97" gradientUnits="userSpaceOnUse">
<stop offset="0.6792" stop-color="#608BC4"/>
<stop offset="0.9009" stop-color="#608BC4"/>
</linearGradient>
<linearGradient id="paint3_linear_3429_101883" x1="22.5479" y1="95.2933" x2="59.1719" y2="95.2933" gradientUnits="userSpaceOnUse">
<stop offset="0.2128" stop-color="#425682"/>
<stop offset="1" stop-color="#608BC4"/>
</linearGradient>
<linearGradient id="paint4_linear_3429_101883" x1="27.1499" y1="93.9313" x2="59.1728" y2="93.9313" gradientUnits="userSpaceOnUse">
<stop offset="0.1226" stop-color="#DCE6F4"/>
<stop offset="0.4117" stop-color="#9AB8DB"/>
</linearGradient>
<linearGradient id="paint5_linear_3429_101883" x1="26.1549" y1="19.7803" x2="49.4974" y2="19.7803" gradientUnits="userSpaceOnUse">
<stop offset="0.1226" stop-color="#DCE6F4"/>
<stop offset="0.2358" stop-color="#9AB8DB"/>
</linearGradient>
<linearGradient id="paint6_linear_3429_101883" x1="43.9557" y1="46.2137" x2="56.5612" y2="29.4252" gradientUnits="userSpaceOnUse">
<stop offset="0.1759" stop-color="#F4B1B1"/>
<stop offset="0.7186" stop-color="#F28C8D"/>
</linearGradient>
<linearGradient id="paint7_linear_3429_101883" x1="27.1564" y1="19.7659" x2="48.7946" y2="19.7659" gradientUnits="userSpaceOnUse">
<stop offset="0.2447" stop-color="#5E8CC6"/>
<stop offset="0.4845" stop-color="#547BB2"/>
<stop offset="0.9714" stop-color="#3A4E80"/>
<stop offset="1" stop-color="#384B7D"/>
</linearGradient>
<linearGradient id="paint8_linear_3429_101883" x1="35.5677" y1="51.3856" x2="57.8102" y2="51.3856" gradientUnits="userSpaceOnUse">
<stop offset="0.6792" stop-color="#608BC4"/>
<stop offset="0.9009" stop-color="#608BC4"/>
</linearGradient>
<linearGradient id="paint9_linear_3429_101883" x1="49.1292" y1="55.5915" x2="55.6568" y2="54.2381" gradientUnits="userSpaceOnUse">
<stop offset="0.6792" stop-color="#608BC4"/>
<stop offset="0.9009" stop-color="#608BC4"/>
</linearGradient>
<linearGradient id="paint10_linear_3429_101883" x1="36.2186" y1="60.0594" x2="59.0473" y2="60.0594" gradientUnits="userSpaceOnUse">
<stop offset="0.6792" stop-color="#608BC4"/>
<stop offset="0.9009" stop-color="#608BC4"/>
</linearGradient>
<linearGradient id="paint11_linear_3429_101883" x1="37.8255" y1="64.6839" x2="59.062" y2="64.6839" gradientUnits="userSpaceOnUse">
<stop offset="0.6792" stop-color="#608BC4"/>
<stop offset="0.9009" stop-color="#608BC4"/>
</linearGradient>
<linearGradient id="paint12_linear_3429_101883" x1="45.9761" y1="36.8518" x2="70.3205" y2="36.8518" gradientUnits="userSpaceOnUse">
<stop offset="0.2581" stop-color="#EC6A6C"/>
<stop offset="0.5571" stop-color="#EC6C6E"/>
<stop offset="0.6648" stop-color="#EE7374"/>
<stop offset="0.7414" stop-color="#F07E80"/>
<stop offset="0.7935" stop-color="#F28C8D"/>
<stop offset="0.957" stop-color="#F28C8D"/>
</linearGradient>
<linearGradient id="paint13_linear_3429_101883" x1="63.421" y1="42.3188" x2="63.421" y2="99.9182" gradientUnits="userSpaceOnUse">
<stop stop-color="#242F65"/>
<stop offset="0.2659" stop-color="#273368"/>
<stop offset="0.5407" stop-color="#314072"/>
<stop offset="0.8185" stop-color="#425482"/>
<stop offset="0.8396" stop-color="#435683"/>
</linearGradient>
<linearGradient id="paint14_linear_3429_101883" x1="61.5208" y1="40.439" x2="61.5208" y2="99.9644" gradientUnits="userSpaceOnUse">
<stop offset="0.1859" stop-color="#242F65"/>
<stop offset="0.3618" stop-color="#242F65"/>
</linearGradient>
<linearGradient id="paint15_linear_3429_101883" x1="63.2119" y1="15.7925" x2="68.8737" y2="15.7925" gradientUnits="userSpaceOnUse">
<stop offset="0.0430107" stop-color="#F28C8D"/>
<stop offset="0.2065" stop-color="#F28C8D"/>
<stop offset="0.2586" stop-color="#F07E80"/>
<stop offset="0.3352" stop-color="#EE7374"/>
<stop offset="0.4429" stop-color="#EC6C6E"/>
<stop offset="0.7419" stop-color="#EC6A6C"/>
</linearGradient>
<linearGradient id="paint16_linear_3429_101883" x1="76.1751" y1="39.9955" x2="82.6336" y2="39.9955" gradientUnits="userSpaceOnUse">
<stop offset="0.1011" stop-color="#F4B0B0"/>
<stop offset="0.1055" stop-color="#F0AFB1"/>
<stop offset="0.1493" stop-color="#D1ABB9"/>
<stop offset="0.1979" stop-color="#B6A7BF"/>
<stop offset="0.2538" stop-color="#A0A4C5"/>
<stop offset="0.3192" stop-color="#8FA2C9"/>
<stop offset="0.4" stop-color="#84A0CC"/>
<stop offset="0.5133" stop-color="#7D9FCE"/>
<stop offset="0.8279" stop-color="#7B9FCE"/>
</linearGradient>
<linearGradient id="paint17_linear_3429_101883" x1="62.7783" y1="46.4895" x2="79.9879" y2="46.4895" gradientUnits="userSpaceOnUse">
<stop offset="0.1312" stop-color="#F4B0B0"/>
<stop offset="0.1567" stop-color="#E1ADB5"/>
<stop offset="0.2056" stop-color="#C1A9BD"/>
<stop offset="0.2591" stop-color="#A8A5C3"/>
<stop offset="0.3181" stop-color="#94A2C8"/>
<stop offset="0.3853" stop-color="#86A0CB"/>
<stop offset="0.4681" stop-color="#7D9FCD"/>
<stop offset="0.6118" stop-color="#7B9FCE"/>
<stop offset="1" stop-color="#608BC4"/>
</linearGradient>
<linearGradient id="paint18_linear_3429_101883" x1="63.8589" y1="22.6449" x2="79.1762" y2="22.6449" gradientUnits="userSpaceOnUse">
<stop offset="0.277" stop-color="#425682"/>
<stop offset="0.3589" stop-color="#314272"/>
<stop offset="0.4436" stop-color="#273568"/>
<stop offset="0.5226" stop-color="#233165"/>
<stop offset="0.532" stop-color="#233165"/>
</linearGradient>
<linearGradient id="paint19_linear_3429_101883" x1="53.3495" y1="37.4137" x2="69.7873" y2="37.4137" gradientUnits="userSpaceOnUse">
<stop offset="0.1011" stop-color="#F4B0B0"/>
<stop offset="0.8279" stop-color="#7B9FCE"/>
<stop offset="0.9227" stop-color="#799ECD" stop-opacity="0.4149"/>
<stop offset="0.9568" stop-color="#7299CB" stop-opacity="0.2045"/>
<stop offset="0.9811" stop-color="#6790C6" stop-opacity="0.05472"/>
<stop offset="0.9899" stop-color="#608BC4" stop-opacity="0.01"/>
</linearGradient>
<linearGradient id="paint20_linear_3429_101883" x1="67.934" y1="96.5494" x2="73.9705" y2="96.5494" gradientUnits="userSpaceOnUse">
<stop offset="0.0430107" stop-color="#F28C8D"/>
<stop offset="0.2065" stop-color="#F28C8D"/>
</linearGradient>
<linearGradient id="paint21_linear_3429_101883" x1="73.887" y1="89.2253" x2="73.887" y2="95.8221" gradientUnits="userSpaceOnUse">
<stop offset="0.0430107" stop-color="#F28C8D"/>
<stop offset="0.2065" stop-color="#F28C8D"/>
</linearGradient>
<linearGradient id="paint22_linear_3429_101883" x1="20.0494" y1="87.4624" x2="20.0494" y2="103.677" gradientUnits="userSpaceOnUse">
<stop offset="0.5176" stop-color="#F48F90"/>
<stop offset="0.809" stop-color="#F06B6C"/>
</linearGradient>
<linearGradient id="paint23_linear_3429_101883" x1="9.01441" y1="103.592" x2="23.0692" y2="103.592" gradientUnits="userSpaceOnUse">
<stop offset="0.0430107" stop-color="#F48F90"/>
<stop offset="0.2434" stop-color="#F28485"/>
<stop offset="0.6797" stop-color="#EF7173"/>
<stop offset="0.9831" stop-color="#EE6A6C"/>
</linearGradient>
<linearGradient id="paint24_linear_3429_101883" x1="14.6132" y1="95.8151" x2="24.4667" y2="95.8151" gradientUnits="userSpaceOnUse">
<stop offset="0.191" stop-color="#F06B6C"/>
<stop offset="0.4824" stop-color="#F48F90"/>
</linearGradient>
</defs>
</svg>
